<svg width="301" height="301" viewBox="0 0 301 301" fill="none" xmlns="http://www.w3.org/2000/svg">
<circle cx="150.5" cy="150.5" r="150.5" fill="#009688"/>
<path d="M122 188C122 203.464 109.464 216 94 216C78.536 216 66 203.464 66 188C66 172.536 78.536 160 94 160C109.464 160 122 172.536 122 188Z" fill="#EEEEEE"/>
<path d="M234 188C234 203.464 221.464 216 206 216C190.536 216 178 203.464 178 188C178 172.536 190.536 160 206 160C221.464 160 234 172.536 234 188Z" fill="#EEEEEE"/>
<path d="M179 94C179 109.464 166.464 122 151 122C135.536 122 123 109.464 123 94C123 78.536 135.536 66 151 66C166.464 66 179 78.536 179 94Z" fill="#EEEEEE"/>
</svg>
